<?xml version="1.0" standalone="no"?>
<!DOCTYPE svg PUBLIC "-//W3C//DTD SVG 20010904//EN"
 "http://www.w3.org/TR/2001/REC-SVG-20010904/DTD/svg10.dtd">
<svg version="1.0" xmlns="http://www.w3.org/2000/svg"
 width="256.000000pt" height="256.000000pt" viewBox="0 0 256.000000 256.000000"
 preserveAspectRatio="xMidYMid meet">

<g transform="translate(0.000000,256.000000) scale(0.100000,-0.100000)"
fill="#000000" stroke="none">
<path d="M1536 2330 c-15 -5 -35 -19 -43 -30 -12 -17 -22 -21 -43 -16 -43 8
-101 -25 -128 -73 -32 -56 -44 -102 -32 -116 6 -8 7 -22 2 -35 -6 -16 -11 -19
-16 -12 -4 7 -12 12 -18 12 -8 0 -9 -30 -5 -99 6 -78 13 -112 37 -167 17 -38
35 -78 40 -89 8 -19 40 -179 40 -201 0 -6 -35 -19 -77 -29 -102 -25 -163 -52
-163 -75 0 -9 -9 -25 -21 -36 -21 -19 -21 -19 -45 11 -13 17 -38 56 -54 88
-17 31 -38 57 -45 57 -16 0 -35 33 -66 115 -12 32 -30 66 -40 76 -16 16 -17
24 -9 39 6 11 9 24 6 29 -10 16 -135 45 -148 34 -7 -6 -30 -16 -50 -22 -20 -7
-40 -20 -43 -30 -3 -10 -20 -22 -38 -27 -19 -6 -43 -25 -62 -51 -16 -23 -35
-42 -41 -42 -7 -1 -26 14 -43 32 -30 30 -37 32 -101 32 -67 0 -68 0 -87 34
-10 19 -17 40 -15 47 4 20 -85 191 -104 198 -21 8 -38 -6 -54 -43 -6 -16 -20
-31 -30 -34 -15 -4 -20 -20 -26 -83 -12 -119 -8 -217 10 -252 19 -37 21 -75 4
-101 -9 -15 -7 -27 15 -64 39 -66 76 -107 91 -101 15 6 48 -34 41 -47 -8 -11
77 -81 136 -113 160 -84 238 -118 287 -126 30 -5 59 -13 66 -18 6 -5 29 -15
51 -22 22 -7 56 -21 76 -32 19 -10 68 -22 108 -27 76 -10 99 -21 86 -41 -6 -9
-26 -11 -67 -6 -106 11 -239 -44 -221 -90 4 -10 -3 -14 -21 -14 -61 0 -99 -86
-56 -125 11 -10 17 -21 14 -26 -2 -5 3 -17 13 -27 22 -23 40 -50 52 -78 16
-36 41 -54 76 -54 46 0 69 33 59 84 -6 33 -4 36 17 36 21 0 27 -9 44 -65 21
-69 45 -95 89 -95 14 0 28 -5 32 -11 4 -7 24 -9 55 -6 27 3 49 2 49 -3 0 -11
80 -57 116 -66 16 -4 32 -11 35 -16 3 -5 38 -14 77 -20 65 -9 75 -8 112 11 22
11 47 18 56 14 8 -3 26 0 40 8 31 16 76 2 84 -26 8 -32 33 -62 62 -75 22 -11
29 -9 47 9 12 12 32 21 44 21 53 0 83 68 91 201 1 20 10 53 21 73 18 33 18 39
5 78 -14 41 -17 43 -67 52 -37 6 -57 5 -67 -3 -18 -15 -28 -68 -16 -91 7 -13
5 -22 -8 -34 -15 -13 -23 -14 -50 -4 -25 10 -32 19 -37 50 -4 21 -11 38 -16
38 -16 0 -10 44 11 78 11 18 20 44 20 59 0 25 1 25 53 18 28 -5 75 -9 102 -10
55 -3 171 21 195 40 17 13 49 28 65 30 26 3 57 30 82 73 45 77 65 88 155 84
91 -5 134 14 147 63 6 22 13 29 28 28 24 -3 53 52 53 100 0 46 -34 111 -71
137 -26 19 -34 21 -54 10 -15 -8 -37 -10 -60 -6 -28 6 -45 2 -71 -13 -19 -12
-37 -21 -38 -21 -2 0 -16 25 -31 55 -14 30 -31 55 -36 55 -6 0 -19 23 -31 50
-11 28 -25 50 -29 50 -19 0 -7 29 26 64 19 21 35 46 35 56 0 10 6 20 14 23 21
8 35 66 46 186 8 86 7 115 -7 170 -18 70 -58 149 -83 161 -77 38 -106 48 -114
40 -4 -4 -15 -6 -22 -3 -11 4 -14 -11 -14 -76 0 -45 -4 -81 -8 -81 -4 0 -24
28 -44 63 -47 80 -120 152 -144 143 -12 -5 -28 4 -53 28 -59 57 -154 80 -235
56z m163 -71 c52 -11 112 -52 152 -103 21 -27 21 -29 5 -57 -9 -16 -19 -37
-21 -47 -3 -9 -8 -33 -13 -52 -7 -33 -10 -35 -52 -38 -25 -2 -49 -7 -54 -12
-6 -6 -17 -3 -30 8 -18 16 -19 16 -13 0 4 -10 2 -18 -2 -18 -5 0 -17 -3 -27
-7 -13 -5 -15 -3 -9 8 7 12 6 12 -7 1 -13 -10 -19 -10 -31 3 -9 8 -19 24 -22
35 -4 11 -11 17 -17 14 -7 -5 -9 0 -6 14 4 13 2 20 -6 19 -6 -1 -12 9 -12 23
-1 14 -11 63 -22 110 -11 47 -20 85 -19 85 1 1 16 6 32 12 40 14 112 15 174 2z
m418 -124 c36 -25 93 -143 99 -205 3 -30 2 -50 -3 -44 -4 6 -18 16 -30 23 -13
6 -23 18 -23 26 0 8 -4 15 -10 15 -5 0 -10 8 -10 18 0 23 -19 42 -41 42 -12 0
-18 13 -23 53 -11 94 -5 104 41 72z m-174 -64 c9 -16 17 -31 17 -34 0 -2 -18
-7 -41 -11 -22 -4 -39 -10 -37 -14 2 -4 24 -47 47 -97 24 -49 45 -92 47 -94 2
-2 15 2 29 9 l25 13 -22 36 c-25 41 -58 107 -58 116 0 3 9 5 19 5 30 0 79
-110 82 -183 1 -31 0 -59 -3 -63 -10 -9 -73 22 -112 56 -56 49 -76 97 -76 178
0 55 4 73 20 90 28 29 42 28 63 -7z m-1803 -198 c12 -21 23 -54 24 -73 3 -44
10 -56 85 -154 35 -45 59 -86 56 -94 -6 -16 67 -114 122 -162 22 -19 77 -60
123 -90 46 -30 122 -93 169 -140 47 -47 97 -90 111 -97 42 -20 191 -83 195
-83 3 0 5 5 5 10 0 6 -21 20 -47 31 -79 33 -173 99 -263 183 -47 43 -115 101
-151 127 -37 27 -74 61 -84 75 -9 14 -41 52 -72 84 -47 50 -111 148 -113 172
-1 18 97 -7 134 -34 21 -15 44 -28 50 -28 7 0 29 23 50 50 45 59 77 78 149 90
92 14 108 1 192 -155 20 -38 49 -85 64 -104 14 -18 44 -60 66 -92 22 -32 50
-71 63 -88 12 -16 18 -32 13 -35 -10 -7 -4 -78 10 -116 5 -14 25 -36 45 -49
19 -13 31 -27 25 -30 -16 -10 -23 -58 -12 -79 6 -11 24 -23 40 -27 16 -3 37
-15 47 -27 11 -11 28 -24 39 -29 20 -8 20 -8 -1 -8 -37 -2 -244 28 -262 38 -9
4 -39 12 -67 16 -27 4 -54 10 -60 15 -5 4 -28 11 -50 15 -95 17 -193 58 -395
165 -178 95 -221 123 -217 140 2 8 -12 35 -32 59 -19 24 -50 71 -68 105 -18
34 -32 57 -32 51 0 -5 6 -21 14 -35 8 -14 14 -29 14 -35 0 -20 -32 51 -45 99
-13 51 -7 177 16 311 5 33 10 61 10 63 0 1 4 2 9 2 5 0 19 -17 31 -37z m1993
-429 c50 -66 89 -150 91 -196 0 -21 2 -38 3 -38 5 0 79 43 91 52 11 10 45 15
121 21 64 5 78 -129 21 -191 -44 -48 -140 -64 -226 -37 -17 5 -27 -4 -60 -61
-49 -85 -93 -122 -185 -158 -92 -35 -136 -42 -194 -27 -25 6 -66 16 -92 22
-49 12 -103 52 -103 76 0 7 -7 13 -17 13 -9 0 -47 21 -85 47 -62 42 -67 48
-48 55 12 5 33 17 47 28 30 23 52 16 29 -9 -28 -31 -19 -44 15 -24 29 17 31
17 44 -1 8 -10 18 -15 24 -11 13 7 -1 38 -32 73 -25 27 -9 29 36 3 83 -47 169
-39 228 20 49 49 51 70 7 63 -33 -5 -108 19 -108 34 0 5 17 18 38 30 20 11 71
59 112 106 65 73 77 83 87 69 7 -9 14 -21 16 -27 2 -6 7 -8 11 -5 3 3 0 22 -9
41 -13 32 -13 37 0 48 19 16 65 -2 112 -43 47 -42 41 -11 -7 33 -22 20 -37 40
-33 44 12 12 27 0 66 -50z m-1983 -89 c0 -5 -5 -3 -10 5 -5 8 -10 20 -10 25 0
6 5 3 10 -5 5 -8 10 -19 10 -25z m54 -54 c-5 -6 -34 20 -34 30 0 5 8 1 18 -8
10 -10 17 -20 16 -22z m1144 -103 c7 -7 12 -27 12 -44 0 -18 4 -35 9 -38 4 -3
15 -33 22 -67 12 -56 18 -64 59 -92 43 -29 138 -105 170 -137 8 -8 14 -26 14
-40 -1 -28 -20 -109 -26 -116 -9 -8 -64 26 -93 57 -23 24 -25 28 -8 18 30 -18
44 -1 15 20 -42 29 -177 145 -185 158 -4 7 -23 20 -42 27 -18 8 -38 24 -45 35
-7 14 -21 21 -40 21 -23 0 -30 5 -30 20 0 16 5 19 30 14 33 -7 40 6 14 26 -8
8 -20 22 -25 32 -17 31 19 22 53 -14 21 -23 28 -38 24 -54 -8 -30 10 -40 24
-13 9 16 8 24 -4 38 -23 25 -21 71 2 71 11 0 24 -10 30 -22 11 -23 11 -23 11
3 1 14 -8 36 -19 49 -11 13 -20 26 -20 30 0 8 22 30 30 30 3 0 11 -5 18 -12z
m-75 -31 c3 -7 -4 -19 -14 -25 -16 -10 -19 -9 -19 6 0 31 23 44 33 19z m-103
-307 c46 -5 103 -10 125 -10 35 0 48 -7 88 -45 26 -24 47 -50 47 -57 0 -13
124 -113 169 -137 22 -12 23 -17 17 -74 -6 -65 -32 -109 -88 -150 -49 -37
-188 -32 -308 11 -62 21 -73 31 -58 49 6 8 13 50 15 92 4 71 2 81 -20 107 -14
16 -26 38 -29 49 -3 16 -11 20 -46 20 l-42 0 0 40 c0 22 -7 51 -16 63 -15 21
-15 25 1 42 11 12 26 18 39 15 12 -3 59 -9 106 -15z m-193 -54 c24 -28 32 -89
13 -101 -18 -11 -10 -23 20 -30 19 -4 36 -2 45 5 8 6 19 9 25 5 17 -10 50 -82
50 -109 0 -14 4 -27 9 -30 5 -3 3 -22 -4 -43 -13 -37 -14 -38 -69 -41 -92 -5
-142 37 -151 126 -2 30 -7 36 -22 33 -10 -2 -31 -4 -48 -5 -45 -2 -55 -13 -55
-57 0 -27 -5 -42 -16 -46 -26 -10 -36 11 -20 42 8 16 12 33 9 39 -4 6 -9 4
-11 -4 -7 -20 -22 -29 -39 -23 -11 4 -11 9 3 24 19 21 11 40 -8 21 -14 -14
-28 -16 -28 -3 0 5 9 13 20 16 29 9 25 28 -5 21 -29 -7 -32 0 -7 27 17 19 16
20 -10 13 -20 -4 -28 -3 -28 6 1 23 27 48 49 48 11 0 38 17 60 39 56 56 69 62
135 58 50 -3 63 -8 83 -31z m879 -199 c26 -23 26 -24 10 -55 -9 -17 -16 -49
-16 -70 0 -22 -9 -70 -20 -106 -24 -77 -52 -99 -110 -87 -27 5 -35 13 -42 38
-5 20 -18 35 -37 43 l-29 12 24 41 c13 23 24 50 24 60 0 21 19 22 48 1 13 -9
29 -13 37 -10 24 9 55 69 55 107 0 56 14 62 56 26z"/>
<path d="M1577 2033 c-4 -3 -7 -11 -7 -17 0 -6 5 -5 12 2 6 6 9 14 7 17 -3 3
-9 2 -12 -2z"/>
<path d="M570 1495 c0 -22 97 -132 170 -193 36 -29 90 -75 120 -102 78 -70
184 -142 189 -128 2 6 -3 16 -12 22 -8 7 -47 40 -86 76 -39 35 -103 85 -143
112 -65 44 -218 198 -218 219 0 5 -4 9 -10 9 -5 0 -10 -7 -10 -15z"/>
<path d="M257 1269 c7 -7 15 -10 18 -7 3 3 -2 9 -12 12 -14 6 -15 5 -6 -5z"/>
<path d="M2076 1353 c-8 -19 38 -119 59 -126 22 -9 38 19 31 57 -12 65 -74
113 -90 69z m53 -34 c14 -40 14 -39 -3 -39 -15 0 -39 54 -29 64 13 12 21 5 32
-25z"/>
</g>
</svg>
